<?xml version="1.0" encoding="UTF-8"?>
<svg id="Layer_1" data-name="Layer 1" xmlns="http://www.w3.org/2000/svg" xmlns:xlink="http://www.w3.org/1999/xlink" viewBox="0 0 3000 461.74">
  <defs>
    <style>
      .cls-1 {
        fill: url(#linear-gradient);
      }
    </style>
    <linearGradient id="linear-gradient" x1="2300.99" y1="-521.66" x2="690.65" y2="1088.68" gradientUnits="userSpaceOnUse">
      <stop offset="0" stop-color="#4754a4"/>
      <stop offset="1" stop-color="#05abba"/>
    </linearGradient>
  </defs>
  <path class="cls-1" d="M979.29,286.26V25.52h53.97v172.12c20.45-36.36,59.08-56.81,104.52-56.81,73.28,0,142.58,52.83,142.58,145.99,0,88.05-62.49,149.4-151.67,149.4s-149.4-58.51-149.4-149.97ZM1225.82,288.53c0-56.81-38.63-97.71-96.57-97.71s-96,40.9-96,97.71,38.63,97.71,96,97.71,96.57-40.9,96.57-97.71ZM1334.88,25.52h53.97v403.32h-53.97V25.52ZM1454.74,282.85c0-93.73,55.67-142.02,138.61-142.02s138.61,47.72,138.61,142.02v145.99h-53.97v-145.99c0-60.78-33.52-92.03-84.64-92.03s-84.64,31.24-84.64,92.03v145.99h-53.97v-145.99ZM1797.85,25.52h53.97v247.11l128.95-124.41h71.01l-146.56,136.9,151.67,143.72h-72.14l-132.93-130.65v130.65h-53.97V25.52ZM2098.91,398.73c0-21.59,15.91-37.49,37.49-37.49s37.49,15.91,37.49,37.49-15.91,37.49-37.49,37.49-37.49-15.91-37.49-37.49ZM2234.1,65.85c0-21.59,15.91-37.49,37.49-37.49s37.49,15.91,37.49,37.49-15.91,38.06-37.49,38.06-37.49-16.47-37.49-38.06ZM2244.89,148.22h53.97v280.62h-53.97V148.22ZM2352.82,288.53c0-85.21,62.49-147.7,151.1-147.7,74.42,0,130.09,44.31,144.86,109.07h-54.53c-13.63-35.79-46.58-59.08-90.32-59.08-57.94,0-96.57,40.9-96.57,97.71s38.63,97.71,96.57,97.71c43.74,0,76.69-23.29,90.32-59.08h54.53c-14.77,64.76-70.44,109.07-144.86,109.07-88.62,0-151.1-62.49-151.1-147.7ZM2693.65,294.78v-146.56h53.97v146.56c0,60.78,33.52,91.46,84.64,91.46s84.64-30.68,84.64-91.46v-146.56h53.97v146.56c0,93.16-55.67,141.45-138.61,141.45s-138.61-47.72-138.61-141.45ZM890.07,405.79H44.25c-8.35,0-15.12,6.77-15.12,15.12h0c0,8.35,6.77,15.12,15.12,15.12h845.82c8.35,0,15.12-6.77,15.12-15.12h0c0-8.35-6.77-15.12-15.12-15.12ZM102.53,404.77c-1.55-4.25-2.36-8.69-2.36-13.21,0-11.96,5.63-23.39,15.85-32.18,11.1-9.54,26.04-14.79,42.08-14.79s30.99,5.25,42.08,14.79c10.22,8.79,15.85,20.22,15.85,32.18,0,4.52-.8,8.96-2.36,13.21h21.07c.99-4.27,1.51-8.69,1.51-13.21,0-16.5-6.93-31.62-18.41-43.31,8.68-2.56,29.68-10.24,30.65-24.82,1.23-18.41-2.24-48.6,24.39-77.41,25.34-27.41,70.27-38.58,117.44-6.72,7.62,5.14,37.96-25.46,56.38-73.24,10.32-26.78,20.98-61.99,23.04-91.93.03,0,.05,0,.08,0,2.06,29.94,12.72,65.15,23.04,91.93,18.41,47.78,48.76,78.38,56.38,73.24,47.17-31.86,92.1-20.69,117.44,6.72,26.63,28.8,23.16,59,24.39,77.41.95,14.21,20.9,21.86,29.95,24.61-11.61,11.73-18.61,26.92-18.61,43.52,0,4.52.52,8.94,1.51,13.21h21.07c-1.55-4.25-2.36-8.69-2.36-13.21,0-11.96,5.63-23.39,15.85-32.18,11.1-9.54,26.04-14.79,42.08-14.79s30.99,5.25,42.08,14.79c10.22,8.79,15.85,20.22,15.85,32.18,0,4.52-.8,8.96-2.36,13.21h21.07c.99-4.27,1.51-8.69,1.51-13.21,0-37.11-34.99-67.19-78.16-67.19-3.38,0-6.7.18-9.97.54,0,0,0,0,0,0-.11-27.45-4.68-53.95-13.06-78.91l.02.03c8.49-17.99,16.81-66.91,20.14-104.45,3.33-37.54-2.43-109.9-34.63-112.45-29.23-2.32-122.15,43.94-139.02,52.48-39.51-17.74-83.96-27.71-130.95-27.71s-91.17,9.91-130.6,27.55c-17.66-8.93-109.65-54.63-138.71-52.32-32.2,2.55-37.96,74.92-34.63,112.45,3.28,36.97,11.4,85,19.76,103.62-8.66,25.51-13.33,52.64-13.33,80.76,0,.04,0,.08,0,.11,0,0,0,0,0,0-5.63-1.11-11.48-1.69-17.5-1.69-43.17,0-78.16,30.08-78.16,67.19,0,4.52.52,8.94,1.51,13.21h21.07ZM726.11,89.75c10.51,39.44,3.67,81.07.96,94.4-19.14-28.6-43.9-53.72-72.87-74.07,17.39-10.26,67.22-37.89,71.91-20.32ZM220.79,89.75c4.65-17.45,53.84,9.68,71.54,20.11-28.84,20.21-53.52,45.14-72.66,73.53-2.8-14.08-9.21-54.92,1.11-93.64ZM186.11,328.8s0,0,0,0c-.04-.01-.08-.03-.13-.04.04.01.08.03.13.04ZM334.22,239.91c-35.77,0-64.77,29-64.77,64.77s29,64.77,64.77,64.77,64.77-29,64.77-64.77-29-64.77-64.77-64.77ZM316.88,308.5c-14.59,0-26.41-11.83-26.41-26.41s11.83-26.41,26.41-26.41,26.41,11.83,26.41,26.41-11.83,26.41-26.41,26.41ZM361.24,349.88c-5.66,0-10.25-4.59-10.25-10.25s4.59-10.25,10.25-10.25,10.25,4.59,10.25,10.25-4.59,10.25-10.25,10.25ZM605.47,239.91c-35.77,0-64.77,29-64.77,64.77s29,64.77,64.77,64.77,64.77-29,64.77-64.77-29-64.77-64.77-64.77ZM588.13,308.5c-14.59,0-26.41-11.83-26.41-26.41s11.83-26.41,26.41-26.41,26.41,11.83,26.41,26.41-11.83,26.41-26.41,26.41ZM632.49,349.88c-5.66,0-10.25-4.59-10.25-10.25s4.59-10.25,10.25-10.25,10.25,4.59,10.25,10.25-4.59,10.25-10.25,10.25ZM453.02,361.44c-6.78,5.71-17.03,4.71-17.78,4.62-.59-.1-12.03-1.84-13.41,7.98-1.4,9.95,10.63,12.06,10.63,12.06,1.97.28,19.64,2.37,33.38-9.01,1.53-1.27,2.94-2.64,4.22-4.11,1.29,1.47,2.7,2.85,4.22,4.11,9.63,7.99,21.21,9.34,27.94,9.34,2.86,0,4.85-.25,5.44-.33,0,0,11.35-2.03,9.95-12.06-1.37-9.74-12.17-8.07-12.73-7.98-.75.08-11,1.08-17.77-4.62-3.54-2.98-5.75-7.61-6.6-13.78,16.19-4.6,28.01-18.38,28.01-28.4,0-12.19-17.5-22.07-39.08-22.07s-39.08,9.88-39.08,22.07c0,10.26,12.4,24.49,29.21,28.73-.88,6-3.07,10.52-6.55,13.45ZM750.48,391.55v13.21h20.22v-13.21c0-5.58-4.53-10.11-10.11-10.11s-10.11,4.53-10.11,10.11ZM794.9,391.55v13.21h20.22v-13.21c0-5.58-4.53-10.11-10.11-10.11s-10.11,4.53-10.11,10.11ZM175.52,391.55v13.21h20.22v-13.21c0-5.58-4.53-10.11-10.11-10.11s-10.11,4.53-10.11,10.11ZM131.1,391.55v13.21h20.22v-13.21c0-5.58-4.53-10.11-10.11-10.11s-10.11,4.53-10.11,10.11Z"/>
</svg>