<?xml version="1.0" encoding="UTF-8"?>
<svg id="Layer_1" data-name="Layer 1" xmlns="http://www.w3.org/2000/svg" xmlns:xlink="http://www.w3.org/1999/xlink" viewBox="0 0 3000 681.93">
  <defs>
    <style>
      .cls-1 {
        fill: url(#linear-gradient);
      }
    </style>
    <linearGradient id="linear-gradient" x1="2354.78" y1="-473.68" x2="655.9" y2="1225.2" gradientUnits="userSpaceOnUse">
      <stop offset="0" stop-color="#4754a4"/>
      <stop offset="1" stop-color="#05abba"/>
    </linearGradient>
  </defs>
  <path class="cls-1" d="M979.29,280.44V19.7h53.97v172.12c20.45-36.36,59.08-56.81,104.52-56.81,73.28,0,142.58,52.83,142.58,145.99,0,88.05-62.49,149.4-151.67,149.4s-149.4-58.51-149.4-149.97ZM1225.82,282.72c0-56.81-38.63-97.71-96.57-97.71s-96,40.9-96,97.71,38.63,97.71,96,97.71,96.57-40.9,96.57-97.71ZM1334.88,19.7h53.97v403.32h-53.97V19.7ZM1454.74,277.04c0-93.73,55.67-142.02,138.61-142.02s138.61,47.72,138.61,142.02v145.99h-53.97v-145.99c0-60.78-33.52-92.03-84.64-92.03s-84.64,31.24-84.64,92.03v145.99h-53.97v-145.99ZM1797.85,19.7h53.97v247.11l128.95-124.41h71.01l-146.56,136.9,151.67,143.72h-72.14l-132.93-130.65v130.65h-53.97V19.7ZM2098.91,392.92c0-21.59,15.91-37.49,37.49-37.49s37.49,15.91,37.49,37.49-15.91,37.49-37.49,37.49-37.49-15.91-37.49-37.49ZM2234.1,60.03c0-21.59,15.91-37.49,37.49-37.49s37.49,15.91,37.49,37.49-15.91,38.06-37.49,38.06-37.49-16.47-37.49-38.06ZM2244.89,142.4h53.97v280.62h-53.97V142.4ZM2352.82,282.72c0-85.21,62.49-147.7,151.1-147.7,74.42,0,130.09,44.31,144.86,109.07h-54.53c-13.63-35.79-46.58-59.08-90.32-59.08-57.94,0-96.57,40.9-96.57,97.71s38.63,97.71,96.57,97.71c43.74,0,76.69-23.29,90.32-59.08h54.53c-14.77,64.76-70.44,109.07-144.86,109.07-88.62,0-151.1-62.49-151.1-147.7ZM2693.65,288.96v-146.56h53.97v146.56c0,60.78,33.52,91.46,84.64,91.46s84.64-30.68,84.64-91.46v-146.56h53.97v146.56c0,93.16-55.67,141.45-138.61,141.45s-138.61-47.72-138.61-141.45ZM890.07,399.98H44.25c-8.35,0-15.12,6.77-15.12,15.12h0c0,8.35,6.77,15.12,15.12,15.12h845.82c8.35,0,15.12-6.77,15.12-15.12h0c0-8.35-6.77-15.12-15.12-15.12ZM102.53,398.95c-1.55-4.25-2.36-8.69-2.36-13.21,0-11.96,5.63-23.39,15.85-32.18,11.1-9.54,26.04-14.79,42.08-14.79s30.99,5.25,42.08,14.79c10.22,8.79,15.85,20.22,15.85,32.18,0,4.52-.8,8.96-2.36,13.21h21.07c.99-4.27,1.51-8.69,1.51-13.21,0-16.5-6.93-31.62-18.41-43.31,8.68-2.56,29.68-10.24,30.65-24.82,1.23-18.41-2.24-48.6,24.39-77.41,25.34-27.41,70.27-38.58,117.44-6.72,7.62,5.14,37.96-25.46,56.38-73.24,10.32-26.78,20.98-61.99,23.04-91.93.03,0,.05,0,.08,0,2.06,29.94,12.72,65.15,23.04,91.93,18.41,47.78,48.76,78.38,56.38,73.24,47.17-31.86,92.1-20.69,117.44,6.72,26.63,28.8,23.16,59,24.39,77.41.95,14.21,20.9,21.86,29.95,24.61-11.61,11.73-18.61,26.92-18.61,43.52,0,4.52.52,8.94,1.51,13.21h21.07c-1.55-4.25-2.36-8.69-2.36-13.21,0-11.96,5.63-23.39,15.85-32.18,11.1-9.54,26.04-14.79,42.08-14.79s30.99,5.25,42.08,14.79c10.22,8.79,15.85,20.22,15.85,32.18,0,4.52-.8,8.96-2.36,13.21h21.07c.99-4.27,1.51-8.69,1.51-13.21,0-37.11-34.99-67.19-78.16-67.19-3.38,0-6.7.18-9.97.54,0,0,0,0,0,0-.11-27.45-4.68-53.95-13.06-78.91l.02.03c8.49-17.99,16.81-66.91,20.14-104.45,3.33-37.54-2.43-109.9-34.63-112.45-29.23-2.32-122.15,43.94-139.02,52.48-39.51-17.74-83.96-27.71-130.95-27.71s-91.17,9.91-130.6,27.55c-17.66-8.93-109.65-54.63-138.71-52.32-32.2,2.55-37.96,74.92-34.63,112.45,3.28,36.97,11.4,85,19.76,103.62-8.66,25.51-13.33,52.64-13.33,80.76,0,.04,0,.08,0,.11,0,0,0,0,0,0-5.63-1.11-11.48-1.69-17.5-1.69-43.17,0-78.16,30.08-78.16,67.19,0,4.52.52,8.94,1.51,13.21h21.07ZM726.11,83.93c10.51,39.44,3.67,81.07.96,94.4-19.14-28.6-43.9-53.72-72.87-74.07,17.39-10.26,67.22-37.89,71.91-20.32ZM220.79,83.93c4.65-17.45,53.84,9.68,71.54,20.11-28.84,20.21-53.52,45.14-72.66,73.53-2.8-14.08-9.21-54.92,1.11-93.64ZM186.11,322.99s0,0,0,0c-.04-.01-.08-.03-.13-.04.04.01.08.03.13.04ZM334.22,234.1c-35.77,0-64.77,29-64.77,64.77s29,64.77,64.77,64.77,64.77-29,64.77-64.77-29-64.77-64.77-64.77ZM316.88,302.68c-14.59,0-26.41-11.83-26.41-26.41s11.83-26.41,26.41-26.41,26.41,11.83,26.41,26.41-11.83,26.41-26.41,26.41ZM361.24,344.07c-5.66,0-10.25-4.59-10.25-10.25s4.59-10.25,10.25-10.25,10.25,4.59,10.25,10.25-4.59,10.25-10.25,10.25ZM605.47,234.1c-35.77,0-64.77,29-64.77,64.77s29,64.77,64.77,64.77,64.77-29,64.77-64.77-29-64.77-64.77-64.77ZM588.13,302.68c-14.59,0-26.41-11.83-26.41-26.41s11.83-26.41,26.41-26.41,26.41,11.83,26.41,26.41-11.83,26.41-26.41,26.41ZM632.49,344.07c-5.66,0-10.25-4.59-10.25-10.25s4.59-10.25,10.25-10.25,10.25,4.59,10.25,10.25-4.59,10.25-10.25,10.25ZM453.02,355.63c-6.78,5.71-17.03,4.71-17.78,4.62-.59-.1-12.03-1.84-13.41,7.98-1.4,9.95,10.63,12.06,10.63,12.06,1.97.28,19.64,2.37,33.38-9.01,1.53-1.27,2.94-2.64,4.22-4.11,1.29,1.47,2.7,2.85,4.22,4.11,9.63,7.99,21.21,9.34,27.94,9.34,2.86,0,4.85-.25,5.44-.33,0,0,11.35-2.03,9.95-12.06-1.37-9.74-12.17-8.07-12.73-7.98-.75.08-11,1.08-17.77-4.62-3.54-2.98-5.75-7.61-6.6-13.78,16.19-4.6,28.01-18.38,28.01-28.4,0-12.19-17.5-22.07-39.08-22.07s-39.08,9.88-39.08,22.07c0,10.26,12.4,24.49,29.21,28.73-.88,6-3.07,10.52-6.55,13.45ZM750.48,385.74v13.21h20.22v-13.21c0-5.58-4.53-10.11-10.11-10.11s-10.11,4.53-10.11,10.11ZM794.9,385.74v13.21h20.22v-13.21c0-5.58-4.53-10.11-10.11-10.11s-10.11,4.53-10.11,10.11ZM175.52,385.74v13.21h20.22v-13.21c0-5.58-4.53-10.11-10.11-10.11s-10.11,4.53-10.11,10.11ZM131.1,385.74v13.21h20.22v-13.21c0-5.58-4.53-10.11-10.11-10.11s-10.11,4.53-10.11,10.11ZM32.24,580.32v-45.94h16.91v45.94c0,19.05,10.51,28.67,26.53,28.67s26.53-9.61,26.53-28.67v-45.94h16.91v45.94c0,29.2-17.45,44.33-43.44,44.33s-43.44-14.96-43.44-44.33ZM136.58,570.53c0-26,15.31-38.46,37.92-38.46s37.75,12.46,37.75,38.64v.89h-16.74v-1.07c0-16.2-8.55-22.79-21.01-22.79s-21.01,6.59-21.01,22.79v51.81h-16.91v-51.81ZM227.03,495.93h16.91v126.42h-16.91v-126.42ZM308.76,596.88h17.09c.36,7.3,7.12,12.46,19.41,12.46s19.41-5.52,19.41-12.46c0-8.37-9.26-9.44-20.3-10.86-15.31-1.96-33.83-4.81-33.83-24.93,0-17.27,13.53-29.02,34.54-29.02s34.01,11.93,34.36,27.06h-16.74c-.53-6.77-6.77-11.75-17.45-11.75-11.22,0-17.63,5.34-17.63,12.29,0,8.37,9.26,9.26,20.12,10.68,15.31,1.96,34.01,4.81,34.01,24.93,0,17.81-14.42,29.38-36.5,29.38s-35.97-11.75-36.5-27.78ZM398.85,495.93h16.91v52.88c6.05-10.86,16.38-16.74,29.38-16.74,21.9,0,40.6,13.71,40.6,44.51v45.76h-16.91v-45.76c0-19.05-10.51-28.84-26.53-28.84s-26.53,9.97-26.53,28.84v45.76h-16.91v-126.42ZM499.63,578.37c0-26.71,19.59-46.29,47.36-46.29s47.36,19.59,47.36,46.29-19.59,46.29-47.36,46.29-47.36-19.59-47.36-46.29ZM577.26,578.37c0-17.81-12.11-30.62-30.27-30.62s-30.27,12.82-30.27,30.62,12.11,30.62,30.27,30.62,30.27-12.82,30.27-30.62ZM608.25,570.53c0-26,15.31-38.46,37.92-38.46s37.75,12.46,37.75,38.64v.89h-16.74v-1.07c0-16.2-8.55-22.79-21.01-22.79s-21.01,6.59-21.01,22.79v51.81h-16.91v-51.81ZM695.49,589.05v-85.82h16.91v31.16h48.43v15.49h-48.43v39.17c0,13.89,7.3,19.94,18.34,19.94s18.52-5.88,18.52-19.94v-1.96h16.74v1.96c0,23.86-14.24,35.61-35.25,35.61s-35.25-11.75-35.25-35.61ZM776.51,578.37c0-26.71,19.59-46.29,47.36-46.29s47.01,19.59,47.01,46.29v6.23h-76.56c2.49,15.67,14.24,24.39,29.56,24.39,11.4,0,19.41-3.56,24.57-11.22h18.7c-6.77,16.38-22.79,26.89-43.27,26.89-27.78,0-47.36-19.59-47.36-46.29ZM853.07,569.46c-3.38-14.07-14.96-21.72-29.2-21.72s-25.64,7.83-29.02,21.72h58.22ZM884.77,576.59c0-29.38,17.45-44.51,43.44-44.51s43.44,14.96,43.44,44.51v45.76h-16.91v-45.76c0-19.05-10.5-28.84-26.53-28.84s-26.53,9.79-26.53,28.84v45.76h-16.91v-45.76ZM985.55,578.37c0-26.71,19.59-46.29,47.36-46.29s47.01,19.59,47.01,46.29v6.23h-76.56c2.49,15.67,14.24,24.39,29.56,24.39,11.4,0,19.41-3.56,24.57-11.22h18.7c-6.77,16.38-22.79,26.89-43.27,26.89-27.78,0-47.36-19.59-47.36-46.29ZM1062.11,569.46c-3.38-14.07-14.96-21.72-29.2-21.72s-25.64,7.83-29.02,21.72h58.22ZM1093.81,570.53c0-26,15.31-38.46,37.92-38.46s37.75,12.46,37.75,38.64v.89h-16.74v-1.07c0-16.2-8.55-22.79-21.01-22.79s-21.01,6.59-21.01,22.79v51.81h-16.91v-51.81ZM1225.21,589.41c0-14.42,7.66-24.21,20.65-28.67v-.36c-10.5-4.27-16.38-13-16.38-25.46,0-18.87,14.78-31.34,37.03-31.34s35.61,11.22,36.86,31.16h-16.38c-1.07-9.08-8.01-15.67-20.3-15.67-13,0-20.48,7.83-20.48,17.45,0,10.68,7.48,16.91,21.37,16.91h47.36v14.42h-20.3c8.19,4.27,13,11.93,13,22.79,0,20.65-16.56,34.01-41.13,34.01s-41.31-13.71-41.31-35.25ZM1290.91,588.16c0-12.64-8.9-20.3-23.32-20.3h-2.14c-14.42,0-23.32,7.48-23.32,20.3s8.19,21.19,24.39,21.19,24.39-8.72,24.39-21.19ZM1450.45,659.91v-53.06c-6.41,11.4-18.52,17.81-32.76,17.81-22.97,0-44.69-16.56-44.69-45.76,0-27.6,19.59-46.83,47.54-46.83s46.83,18.34,46.83,47.01v80.84h-16.91ZM1450.45,578.37c0-17.81-12.11-30.62-30.09-30.62s-30.27,12.82-30.27,30.62,12.11,30.62,30.27,30.62,30.09-12.82,30.09-30.62ZM1484.82,570.53c0-26,15.31-38.46,37.92-38.46s37.75,12.46,37.75,38.64v.89h-16.74v-1.07c0-16.2-8.55-22.79-21.01-22.79s-21.01,6.59-21.01,22.79v51.81h-16.91v-51.81ZM1615.86,578.37c0-26.71,19.59-46.29,47.36-46.29,23.32,0,40.77,13.89,45.4,34.19h-17.09c-4.27-11.22-14.6-18.52-28.31-18.52-18.16,0-30.27,12.82-30.27,30.62s12.11,30.62,30.27,30.62c13.71,0,24.04-7.3,28.31-18.52h17.09c-4.63,20.3-22.08,34.19-45.4,34.19-27.78,0-47.36-19.59-47.36-46.29ZM1719.14,578.37c0-26.71,19.59-46.29,47.36-46.29s47.36,19.59,47.36,46.29-19.59,46.29-47.36,46.29-47.36-19.59-47.36-46.29ZM1796.76,578.37c0-17.81-12.11-30.62-30.27-30.62s-30.27,12.82-30.27,30.62,12.11,30.62,30.27,30.62,30.27-12.82,30.27-30.62ZM1824.19,577.83c0-29.2,21.72-45.76,44.69-45.76,14.24,0,26.35,6.41,32.76,17.81v-53.95h16.91v81.73c0,28.67-19.59,47.01-46.83,47.01s-47.54-19.23-47.54-46.83ZM1901.64,578.37c0-17.81-12.11-30.62-30.09-30.62s-30.27,12.82-30.27,30.62,12.11,30.62,30.27,30.62,30.09-12.82,30.09-30.62ZM1932.45,578.37c0-26.71,19.59-46.29,47.36-46.29s47.01,19.59,47.01,46.29v6.23h-76.56c2.49,15.67,14.24,24.39,29.56,24.39,11.4,0,19.41-3.56,24.57-11.22h18.7c-6.77,16.38-22.79,26.89-43.27,26.89-27.78,0-47.36-19.59-47.36-46.29ZM2009.01,569.46c-3.38-14.07-14.96-21.72-29.2-21.72s-25.64,7.83-29.02,21.72h58.22ZM2087.71,632.85h17.27c4.1,10.15,14.42,14.6,27.24,14.6,17.98,0,29.91-8.55,29.91-31.51v-10.15c-6.05,11.4-18.34,18.16-33.12,18.16-22.79,0-44.51-15.67-44.51-45.58,0-26.71,19.59-46.29,47.36-46.29s47.01,18.7,47.01,47.01v36.14c0,33.83-20.65,47.01-46.65,47.01-21.54,0-38.46-9.08-44.51-29.38ZM2162.14,578.37c0-17.81-12.11-30.62-30.27-30.62s-30.27,12.82-30.27,30.62,12.11,29.73,30.27,29.73,30.27-11.93,30.27-29.73ZM2192.76,578.37c0-26.71,19.59-46.29,47.36-46.29s47.01,19.59,47.01,46.29v6.23h-76.56c2.49,15.67,14.24,24.39,29.56,24.39,11.4,0,19.41-3.56,24.57-11.22h18.7c-6.77,16.38-22.79,26.89-43.27,26.89-27.78,0-47.36-19.59-47.36-46.29ZM2269.32,569.46c-3.38-14.07-14.96-21.72-29.2-21.72s-25.64,7.83-29.02,21.72h58.22ZM2301.02,576.59c0-29.38,17.45-44.51,43.44-44.51s43.44,14.96,43.44,44.51v45.76h-16.91v-45.76c0-19.05-10.5-28.84-26.53-28.84s-26.53,9.79-26.53,28.84v45.76h-16.91v-45.76ZM2401.8,578.37c0-26.71,19.59-46.29,47.36-46.29s47.01,19.59,47.01,46.29v6.23h-76.56c2.49,15.67,14.24,24.39,29.56,24.39,11.4,0,19.41-3.56,24.57-11.22h18.7c-6.77,16.38-22.79,26.89-43.27,26.89-27.78,0-47.36-19.59-47.36-46.29ZM2478.36,569.46c-3.38-14.07-14.96-21.72-29.2-21.72s-25.64,7.83-29.02,21.72h58.22ZM2510.06,570.53c0-26,15.31-38.46,37.92-38.46s37.75,12.46,37.75,38.64v.89h-16.74v-1.07c0-16.2-8.55-22.79-21.01-22.79s-21.01,6.59-21.01,22.79v51.81h-16.91v-51.81ZM2593.75,579.08c0-27.6,19.59-47.01,47.54-47.01s46.83,18.87,46.83,47.01v43.27h-15.49v-19.23c-5.88,14.24-18.87,21.54-34.19,21.54-22.97,0-44.69-16.56-44.69-45.58ZM2671.38,578.37c0-17.81-12.11-30.62-30.27-30.62s-30.27,12.82-30.27,30.62,12.11,30.62,30.27,30.62,30.27-12.82,30.27-30.62ZM2705.57,589.05v-85.82h16.91v31.16h48.43v15.49h-48.43v39.17c0,13.89,7.3,19.94,18.34,19.94s18.52-5.88,18.52-19.94v-1.96h16.74v1.96c0,23.86-14.24,35.61-35.25,35.61s-35.25-11.75-35.25-35.61ZM2786.58,578.37c0-26.71,19.59-46.29,47.36-46.29s47.36,19.59,47.36,46.29-19.59,46.29-47.36,46.29-47.36-19.59-47.36-46.29ZM2864.21,578.37c0-17.81-12.11-30.62-30.27-30.62s-30.27,12.82-30.27,30.62,12.11,30.62,30.27,30.62,30.27-12.82,30.27-30.62ZM2895.2,570.53c0-26,15.31-38.46,37.92-38.46s37.75,12.46,37.75,38.64v.89h-16.74v-1.07c0-16.2-8.55-22.79-21.01-22.79s-21.01,6.59-21.01,22.79v51.81h-16.91v-51.81Z"/>
</svg>